<svg width="291" height="292" viewBox="0 0 291 292" fill="none" xmlns="http://www.w3.org/2000/svg">
<path d="M230.124 60.8716C227.613 58.3373 224.203 56.9131 220.648 56.9131C217.093 56.9131 213.683 58.3373 211.172 60.8716L145.444 126.917L79.717 60.7362C77.2057 58.202 73.7964 56.7778 70.2409 56.7778C66.6855 56.7778 63.2761 58.202 60.7649 60.7362C55.5228 66.0145 55.5228 74.5408 60.7649 79.819L126.492 146L60.7649 212.181C55.5228 217.459 55.5228 225.985 60.7649 231.263C66.0069 236.542 74.4749 236.542 79.717 231.263L145.444 165.083L211.172 231.263C216.414 236.542 224.882 236.542 230.124 231.263C235.366 225.985 235.366 217.459 230.124 212.181L164.397 146L230.124 79.819C235.232 74.6762 235.232 66.0145 230.124 60.8716Z" fill="white" stroke="black" stroke-width="11"/>
</svg>
